<svg width="80" height="34" viewBox="0 0 80 34" fill="none" xmlns="http://www.w3.org/2000/svg">
<rect x="46" width="34" height="34" rx="17" fill="#4285F4"/>
<path fill-rule="evenodd" clip-rule="evenodd" d="M64.7919 18.2638C63.36 19.6957 61.0384 19.6957 59.6065 18.2638C58.1746 16.8319 58.1746 14.5103 59.6065 13.0783C61.0384 11.6464 63.36 11.6464 64.7919 13.0783C66.2239 14.5103 66.2239 16.8319 64.7919 18.2638ZM65.2323 19.6468C63.2721 21.1462 60.4565 20.9994 58.6637 19.2066C56.7111 17.254 56.7111 14.0882 58.6637 12.1355C60.6163 10.1829 63.7821 10.1829 65.7348 12.1355C67.5275 13.9283 67.6743 16.7437 66.1751 18.7039L69.7418 22.2706L68.799 23.2134L65.2323 19.6468Z" fill="white"/>
</svg>
